<svg width="28" height="29" viewBox="0 0 28 29" fill="none" xmlns="http://www.w3.org/2000/svg">
<mask id="mask0_5_168" style="mask-type:luminance" maskUnits="userSpaceOnUse" x="11" y="11" width="6" height="7">
<path d="M14.0608 11.9395C12.616 11.9395 11.438 13.1174 11.438 14.5623C11.438 16.0072 12.616 17.1851 14.0608 17.1851C15.5057 17.1851 16.6837 16.0072 16.6837 14.5623C16.6929 13.1174 15.5057 11.9395 14.0608 11.9395Z" fill="white"/>
</mask>
<g mask="url(#mask0_5_168)">
<path d="M28.089 0.361328H-0.0195312V28.3773H28.089V0.361328Z" fill="#2FB44A"/>
</g>
<mask id="mask1_5_168" style="mask-type:luminance" maskUnits="userSpaceOnUse" x="7" y="7" width="14" height="15">
<path d="M17.3185 7.79492H10.6739C8.7781 7.79492 7.24121 9.34102 7.24121 11.2276V17.8814C7.24121 19.7772 8.7781 21.3141 10.6739 21.3141H17.3185C19.2143 21.3141 20.7512 19.768 20.7512 17.8814V11.2276C20.7512 9.34102 19.2143 7.79492 17.3185 7.79492ZM14.0606 18.6636C11.7967 18.6636 9.95608 16.823 9.95608 14.5591C9.95608 12.2952 11.7967 10.4546 14.0606 10.4546C16.3245 10.4546 18.1651 12.2952 18.1651 14.5591C18.1651 16.823 16.3245 18.6636 14.0606 18.6636ZM18.4044 11.1632C17.8614 11.1632 17.4289 10.7307 17.4289 10.1877C17.4289 9.64472 17.8706 9.21218 18.4044 9.21218C18.9474 9.21218 19.3799 9.64472 19.3799 10.1877C19.3799 10.7215 18.9382 11.1632 18.4044 11.1632Z" fill="white"/>
</mask>
<g mask="url(#mask1_5_168)">
<path d="M28.0885 0.359375H-0.0200195V28.3754H28.0885V0.359375Z" fill="#2FB44A"/>
</g>
<mask id="mask2_5_168" style="mask-type:luminance" maskUnits="userSpaceOnUse" x="2" y="3" width="24" height="23">
<path d="M19.5274 3.25H8.46541C5.3364 3.25 2.79639 5.79002 2.79639 8.91902V19.981C2.79639 23.11 5.3364 25.65 8.46541 25.65H19.5274C22.6564 25.65 25.1964 23.11 25.1964 19.981V8.91902C25.1964 5.78081 22.6564 3.25 19.5274 3.25ZM22.3159 17.8827C22.3159 20.6436 20.0703 22.8891 17.3095 22.8891H10.6649C7.90403 22.8891 5.65851 20.6436 5.65851 17.8827V11.229C5.65851 8.46808 7.90403 6.22256 10.6649 6.22256H17.3095C20.0703 6.22256 22.3159 8.46808 22.3159 11.229V17.8827Z" fill="white"/>
</mask>
<g mask="url(#mask2_5_168)">
<path d="M28.0885 0.359375H-0.0200195V28.3754H28.0885V0.359375Z" fill="#2FB44A"/>
</g>
</svg>
