<svg width="28" height="24" viewBox="0 0 28 24" fill="none" xmlns="http://www.w3.org/2000/svg">
<path d="M26.3125 11.5C26.3172 12.8199 25.8932 14.1219 25.075 15.3C24.1048 16.7118 22.6134 17.8992 20.7677 18.7293C18.9221 19.5594 16.7951 19.9994 14.625 20C12.8102 20.0035 11.0199 19.6951 9.4 19.1L1.5625 21L4.175 15.3C3.35678 14.1219 2.93277 12.8199 2.9375 11.5C2.93834 9.92179 3.54334 8.37488 4.68474 7.03258C5.82614 5.69028 7.45885 4.6056 9.4 3.90003C11.0199 3.30496 12.8102 2.99659 14.625 3.00003H15.3125C18.1785 3.11502 20.8854 3.99479 22.9151 5.47089C24.9447 6.94699 26.1544 8.91568 26.3125 11V11.5Z" stroke="black" stroke-width="2" stroke-linecap="round" stroke-linejoin="round"/>
<path d="M14.4375 13C14.9898 13 15.4375 12.5523 15.4375 12C15.4375 11.4477 14.9898 11 14.4375 11C13.8852 11 13.4375 11.4477 13.4375 12C13.4375 12.5523 13.8852 13 14.4375 13Z" stroke="black" stroke-width="2" stroke-linecap="round" stroke-linejoin="round"/>
<path d="M21.4375 13C21.9898 13 22.4375 12.5523 22.4375 12C22.4375 11.4477 21.9898 11 21.4375 11C20.8852 11 20.4375 11.4477 20.4375 12C20.4375 12.5523 20.8852 13 21.4375 13Z" stroke="black" stroke-width="2" stroke-linecap="round" stroke-linejoin="round"/>
<path d="M7.4375 13C7.98978 13 8.4375 12.5523 8.4375 12C8.4375 11.4477 7.98978 11 7.4375 11C6.88522 11 6.4375 11.4477 6.4375 12C6.4375 12.5523 6.88522 13 7.4375 13Z" stroke="black" stroke-width="2" stroke-linecap="round" stroke-linejoin="round"/>
</svg>
