<svg width="184" height="87" viewBox="0 0 184 87" fill="none" xmlns="http://www.w3.org/2000/svg">
<path d="M39.2 27.1C39.2 33 35.8 36.6 30.4 37.7C28.9 38 26.4 38 24.7 38L11.6 37.9V42.9L0 33.4L11.6 23.9V28.9L26.3 29C27.7 29 28.3 28.2 28.3 27.4C28.3 25.9 26.9 25.4 22.7 23.4C16 20.2 10.8 17.9 10.8 10.6C10.8 4.9 14.9 1 20.9 0.2C22.1 -1.93715e-07 24.4 0 25.8 0C28.8 0 37.2 0.2 37.2 0.2V9.3L23.4 9.1C22.2 9.1 21.6 9.9 21.6 10.7C21.6 11.9 22.6 12.4 26.5 14.2C34.7 18 39.2 20.1 39.2 27.1ZM60.9 26.4C60.9 28.1 59.4 29.5 56.7 29.5C53.8 29.5 52.5 28.1 52.5 26.4V0.0999999H41.2V27.3C41.2 33.3 46.2 39 56.6 39C66.5 39 72 33.4 72 27.3V0.0999999H60.9V26.4ZM106.7 26.6C106.7 34.1 101.6 38.2 94.2 38.2H75.5V0.0999999H93.5C101.6 0.0999999 105.7 4.6 105.7 10.5C105.7 13.5 104.3 16.1 101.5 18C104.8 19.8 106.7 22.6 106.7 26.6ZM86.6 15.2H91.8C93.8 15.2 94.7 13.8 94.7 11.8C94.7 9.7 93.8 8.4 91.8 8.4H86.6V15.2ZM95.4 26.1C95.4 23.8 94.3 22.5 92.3 22.5H86.6V29.7H92.3C94.4 29.7 95.4 28.3 95.4 26.1Z" fill="#F2B700"/>
<path d="M87.8 48H98.9V74.8C98.9 81 94.5 86.6 85.2 86.6C81.2 86.6 78.1 85.4 75.9 83.6C73.7 85.4 70.7 86.6 67 86.6C57.1 86.6 53 81 53 74.8V48H64.1V74.6C64.1 75.7 64.7 77.1 67.2 77.1C69.7 77.1 70.4 75.8 70.4 74.6V48H81.5V74.6C81.5 75.7 82.1 77.1 84.6 77.1C87.1 77.1 87.8 75.8 87.8 74.6V48ZM146.7 63V48H135.7V64C135.7 69.3 139.3 73.3 145.4 75V86H156.7V75C162.9 73.3 166.3 69.3 166.3 64V58.1C166.3 57.5 166.6 57.2 167.2 57.2H172.1V62L183.7 52.5L172.1 43V47.8H164.4C157.9 47.8 155.2 51.6 155.2 57V63C155.2 64.4 154.2 66.1 150.9 66.1C147.7 66.1 146.7 64.4 146.7 63ZM132.9 58.9V86.1H121.8V75H113.4V86H102.3V58.9C102.3 52.1 107.9 46.9 117.6 46.9C127.2 46.9 132.9 52 132.9 58.9ZM121.8 66.3V59.5C121.8 57.7 120.5 56.4 117.6 56.4C114.6 56.4 113.4 57.7 113.4 59.5V66.3H121.8Z" fill="#008938"/>
</svg>
